<?xml version="1.0" ?><svg id="Layer_1" style="enable-background:new 0 0 50 50;" version="1.1" viewBox="0 0 50 50" xml:space="preserve" xmlns="http://www.w3.org/2000/svg" xmlns:xlink="http://www.w3.org/1999/xlink"><style type="text/css">
	.st0{fill:#F0C4DB;}
	.st1{fill:#FF9D9C;}
	.st2{fill:#9BEAF9;}
	.st3{fill:#E9F4BC;}
	.st4{fill:#505050;}
	.st5{fill:#FEBECC;}
	.st6{fill:#FFFFFF;}
	.st7{fill:#FDE4A1;}
	.st8{fill:#FEE7B5;}
	.st9{fill:#CDF6FC;}
	.st10{fill:#F2C6DD;}
	.st11{opacity:0.1;}
</style><g><path class="st5" d="M44.32,48.84c1.42-2.7,2.23-5.77,2.23-9.03c0-10.77-8.73-19.49-19.49-19.49c-4.78,0-9.15,1.73-12.55,4.58   v23.94H44.32z"/><g><path class="st3" d="M42.54,30.78H38.2v8.32c0,1.23-0.99,2.23-2.23,2.23h-8.72v6.59H10.28V32.61c-3.92-3.37-6.32-8.46-6.05-14.09    C4.66,9.79,11.66,2.6,20.38,1.96c10.02-0.73,18.4,7,18.75,16.76L42.54,30.78z"/><rect class="st2" height="9.76" width="3.54" x="15.25" y="18.19"/><rect class="st6" height="13.47" width="3.54" x="21.62" y="14.48"/><rect class="st1" height="17.17" width="3.54" x="27.98" y="10.77"/><g><path class="st4" d="M28.04,3.91c0.09,0.04,0.19,0.06,0.28,0.06c0.31,0,0.58-0.18,0.7-0.47c0.07-0.18,0.07-0.39,0-0.57     c-0.08-0.19-0.22-0.33-0.41-0.41c0,0,0,0-0.01,0c-0.37-0.15-0.82,0.04-0.97,0.41C27.47,3.32,27.66,3.75,28.04,3.91z"/><path class="st4" d="M43.26,30.58L39.88,18.6c-0.13-3.16-1.09-6.24-2.77-8.92c-1.64-2.6-3.93-4.76-6.62-6.25     c-0.35-0.19-0.83-0.06-1.02,0.29c-0.1,0.18-0.12,0.38-0.06,0.57c0.05,0.19,0.17,0.35,0.34,0.45c0.01,0,0.01,0,0.01,0     c5.11,2.83,8.41,8.19,8.62,14.01l3.17,11.28h-3.35c-0.2,0-0.39,0.08-0.53,0.22c-0.14,0.14-0.22,0.33-0.22,0.53v8.32     c0,0.81-0.66,1.47-1.48,1.47h-4.84c-0.41,0-0.75,0.34-0.75,0.75c0,0.42,0.34,0.75,0.75,0.75h4.84c1.64,0,2.97-1.34,2.98-2.97     v-7.57h3.59c0.24,0,0.46-0.11,0.6-0.3C43.27,31.05,43.33,30.8,43.26,30.58z"/><path class="st4" d="M27.26,40.7c-0.42,0-0.75,0.33-0.75,0.75v5.71H11.02V32.61c0-0.22-0.09-0.43-0.26-0.57     c-3.69-3.18-5.81-7.79-5.81-12.65c0-0.33,0.01-0.59,0.02-0.83c0.17-3.33,1.32-6.51,3.35-9.2c2.92-3.88,7.34-6.31,12.1-6.65     c1.94-0.14,3.94,0.05,5.8,0.58c0.4,0.11,0.82-0.14,0.92-0.52c0.12-0.4-0.12-0.81-0.51-0.93c-2.03-0.57-4.16-0.79-6.32-0.63     c-5.2,0.38-10,3.02-13.19,7.25c-2.21,2.93-3.47,6.4-3.64,10.02c-0.02,0.28-0.03,0.57-0.03,0.91c0,5.17,2.22,10.11,6.07,13.56     v14.96c0,0.2,0.08,0.39,0.22,0.53c0.14,0.14,0.33,0.22,0.53,0.22h16.98c0.2,0,0.38-0.08,0.53-0.22c0.14-0.14,0.22-0.33,0.22-0.53     v-6.46C28.01,41.03,27.67,40.7,27.26,40.7z"/><circle class="st4" cx="29.13" cy="41.32" r="0.75"/><path class="st4" d="M12.53,8.48c-0.41,0-0.75,0.34-0.75,0.75v21.71c0,0.41,0.34,0.75,0.75,0.75h21.71     c0.41,0,0.75-0.34,0.75-0.75s-0.34-0.75-0.75-0.75H13.28V9.23C13.28,8.82,12.94,8.48,12.53,8.48z"/><path class="st4" d="M18.79,28.69c0.41,0,0.75-0.34,0.75-0.75v-9.76c0-0.41-0.34-0.75-0.75-0.75h-3.54     c-0.41,0-0.75,0.34-0.75,0.75v9.76c0,0.41,0.34,0.75,0.75,0.75H18.79z M15.99,18.94h2.04v8.26h-2.04V18.94z"/><path class="st4" d="M25.15,28.69c0.41,0,0.75-0.34,0.75-0.75V14.48c0-0.41-0.34-0.75-0.75-0.75h-3.54     c-0.41,0-0.75,0.34-0.75,0.75v13.47c0,0.41,0.34,0.75,0.75,0.75H25.15z M22.36,15.23h2.04v11.97h-2.04V15.23z"/><path class="st4" d="M27.98,28.69h3.54c0.41,0,0.75-0.34,0.75-0.75V10.77c0-0.41-0.34-0.75-0.75-0.75h-3.54     c-0.41,0-0.75,0.34-0.75,0.75v17.17C27.23,28.36,27.56,28.69,27.98,28.69z M28.73,11.52h2.04v15.67h-2.04V11.52z"/></g></g></g></svg>